<svg width="25" height="19" viewBox="0 0 25 19" fill="none" xmlns="http://www.w3.org/2000/svg">
<path d="M23.7647 8.16667L14.5 17.4314L15.7353 18.6667L25 9.40196M16.6618 8.47549C16.1703 8.47549 15.699 8.67071 15.3515 9.0182C15.004 9.3657 14.8088 9.837 14.8088 10.3284C14.8088 10.8199 15.004 11.2912 15.3515 11.6387C15.699 11.9862 16.1703 12.1814 16.6618 12.1814C17.1532 12.1814 17.6245 11.9862 17.972 11.6387C18.3195 11.2912 18.5147 10.8199 18.5147 10.3284C18.5147 9.837 18.3195 9.3657 17.972 9.0182C17.6245 8.67071 17.1532 8.47549 16.6618 8.47549ZM22.8382 14.652C22.3468 14.652 21.8755 14.8472 21.528 15.1947C21.1805 15.5422 20.9853 16.0135 20.9853 16.5049C20.9853 16.9963 21.1805 17.4676 21.528 17.8151C21.8755 18.1626 22.3468 18.3578 22.8382 18.3578C23.3297 18.3578 23.801 18.1626 24.1485 17.8151C24.496 17.4676 24.6912 16.9963 24.6912 16.5049C24.6912 16.0135 24.496 15.5422 24.1485 15.1947C23.801 14.8472 23.3297 14.652 22.8382 14.652Z" fill="#C8C8C8"/>
<path d="M21.5 0H0.5V14H14.6315L14.6384 13.9931C14.2976 13.805 13.9819 13.5687 13.7017 13.2885C13.2415 12.8283 12.8995 12.2719 12.6952 11.6667H5.16667C5.16667 11.0478 4.92083 10.4543 4.48325 10.0168C4.04566 9.57917 3.45217 9.33333 2.83333 9.33333V4.66667C3.45217 4.66667 4.04566 4.42083 4.48325 3.98325C4.92083 3.54566 5.16667 2.95217 5.16667 2.33333H16.8333C16.8333 2.95217 17.0792 3.54566 17.5168 3.98325C17.9543 4.42083 18.5478 4.66667 19.1667 4.66667V6.97414C19.3268 7.0937 19.479 7.22526 19.622 7.36822C19.9021 7.64838 20.1385 7.96417 20.3266 8.30492L21.5 7.13154V0Z" fill="#C8C8C8"/>
<path d="M14.491 6.74892C14.4309 5.91244 14.0718 5.12207 13.4749 4.52513C12.8185 3.86875 11.9283 3.5 11 3.5C10.0717 3.5 9.1815 3.86875 8.52513 4.52513C7.86875 5.1815 7.5 6.07174 7.5 7C7.5 7.92826 7.86875 8.8185 8.52513 9.47487C9.1815 10.1313 10.0717 10.5 11 10.5C11.5158 10.5 12.0198 10.3862 12.4785 10.1724C12.5177 9.11879 12.9534 8.11646 13.7017 7.36822C13.941 7.1289 14.2063 6.92155 14.491 6.74892Z" fill="#C8C8C8"/>
</svg>
