<svg width="18" height="18" viewBox="0 0 18 18" fill="none" xmlns="http://www.w3.org/2000/svg">
<path fill-rule="evenodd" clip-rule="evenodd" d="M3.6 0L14.4 4.96931e-07V7.57892C15.3941 7.57892 16.2 6.73061 16.2 5.68418V3.95116C17.2487 4.34132 18 5.39407 18 6.63155V15.1579C18 16.7275 16.7912 18 15.3 18H2.7C1.20883 18 0 16.7275 0 15.1579V6.63155C0 5.39407 0.751328 4.34132 1.8 3.95116V5.68418C1.8 6.73061 2.60589 7.57892 3.6 7.57892V0ZM9 5.68423C8.28392 5.68423 7.59716 5.98366 7.09081 6.51666C6.80336 6.81924 6.58742 7.18303 6.45443 7.57892H5.4V3.78948C5.87739 3.78948 6.33523 3.58986 6.67279 3.23453C7.01036 2.87919 7.2 2.39726 7.2 1.89474H10.8C10.8 2.39726 10.9896 2.87919 11.3272 3.23453C11.6648 3.58986 12.1226 3.78948 12.6 3.78948V7.57892H11.5456C11.4126 7.18303 11.1966 6.81924 10.9092 6.51666C10.4028 5.98366 9.71608 5.68423 9 5.68423Z" fill="#C8C8C8"/>
</svg>
